# xmcd
#
# Track frame offsets:
#	150
#	14822
#	34407
#	52615
#	70013
#	86682
#	105511
#	123665
#	142089
#	156032
#	175212
#	190964
#	207633
#	223870
#	236841
#	251594
#	269613
#	284474
#	302439
#
# Disc length: 4262 seconds
#
# Revision: 0
# Processed by: cddbd v1.4b42PL1 Copyright (c) Steve Scherf et al.
# Submitted via: EasyCDDAExtractor 4.5.0.1
#
DISCID=2510a413
DTITLE=Leandro and Leonardo - As 20 Mais
DYEAR=1900
DGENRE=country
TTITLE0=Sublime Renúncia
TTITLE1=Talismã
TTITLE2=Temporal de Amor
TTITLE3=Doce Mistério
TTITLE4=Não Olhe Assim
TTITLE5=Desculpe mas eu vou Chorar
TTITLE6=Solidão
TTITLE7=Sonho por Sonho
TTITLE8=Não Aprendi Dizer Adeus
TTITLE9=Eu Joro
TTITLE10=Paz na Cama
TTITLE11=Esta Noite Foi Maravilhosa
TTITLE12=Quem Será Esta Mulher
TTITLE13=Contradições
TTITLE14=Pense em Mim
TTITLE15=O Cheiro da Maçã
TTITLE16=Entre Tapas e Beijos
TTITLE17=Em Mim
TTITLE18=É Por Voçê que Canto
EXTD=
EXTT0=
EXTT1=
EXTT2=
EXTT3=
EXTT4=
EXTT5=
EXTT6=
EXTT7=
EXTT8=
EXTT9=
EXTT10=
EXTT11=
EXTT12=
EXTT13=
EXTT14=
EXTT15=
EXTT16=
EXTT17=
EXTT18=
PLAYORDER=
